<?xml version="1.0" encoding="utf-8"?>
<!-- Generator: Adobe Illustrator 26.5.0, SVG Export Plug-In . SVG Version: 6.00 Build 0)  -->
<svg version="1.1" id="Layer_1" xmlns="http://www.w3.org/2000/svg" xmlns:xlink="http://www.w3.org/1999/xlink" x="0px" y="0px"
	 viewBox="0 0 1200 630" style="enable-background:new 0 0 1200 630;" xml:space="preserve">
<style type="text/css">
	.st0{fill:#004B7F;}
	.st1{fill:#007B6C;}
</style>
<path class="st0" d="M334.5,318c0-22.4-8.2-43.5-23.2-59.4c-2.9-3.1-6.1-5.9-9.4-8.5l-12.4,22.1c13,11,22.3,26.9,22.3,45.8
	c0,33.1-25.3,59.9-56.5,59.9c-7.3,0-14.3-1.5-20.7-4.2l-11.5,21.1c10,4.7,20.9,7.2,32.2,7.2C299,402,334.5,364.3,334.5,318"/>
<path class="st1" d="M312.1,164.9c-0.1-7.7-0.8-15-2-21.8l-0.4-2.3l-1.6,1.6c-4.9,4.7-9.7,10.2-14.2,16.3
	c-23.4,32-35.3,74.7-28.4,101.7l0.2,0.8l0.8,0.2c1.5,0.3,2.9,0.7,4.2,1.1c1.5,0.5,3.1,1.1,4.5,1.9l0.7,0.3l0.6-0.5
	C297.6,246.7,312.6,205,312.1,164.9"/>
<path class="st1" d="M233.7,135.6l-1.3-1.9l-0.8,2.2c-2.4,6.5-4.4,13.7-5.9,21.3c-7.7,39.6-0.5,83.6,17,104.5l0.5,0.6l0.8-0.2
	c1.5-0.4,2.9-0.7,4.2-1c1.6-0.3,3.2-0.4,4.8-0.5l0.8,0l0.3-0.7c11.7-25.6,7.8-70.1-9.4-105.8C241.3,147.3,237.7,141,233.7,135.6"/>
<path class="st1" d="M177.2,176.3c-5.8-4.6-11.7-8.5-17.5-11.6l-2-1l0.2,2.3c0.5,7,1.7,14.3,3.6,21.9c9.6,39.2,34.4,75.2,58.8,85.8
	l0.7,0.3l0.6-0.5c1.1-1.1,2.2-2,3.4-2.8c1.3-1,2.7-1.9,4.2-2.7l0.7-0.4l0-0.8C229.5,238.3,207.4,200.2,177.2,176.3"/>
<path class="st1" d="M116.6,245.5c25,30.6,62.2,51.4,88.5,49.4l0.8-0.1l0.3-0.8c0.6-1.5,1.2-2.9,1.9-4.1c0.8-1.5,1.6-3,2.6-4.4
	l0.4-0.6l-0.3-0.7c-12-25.4-47.7-49.2-84.8-56.5c-7.1-1.4-14.1-2.1-20.5-2.1l-2.2,0l1.1,2C107.6,233.6,111.8,239.6,116.6,245.5"/>
<path class="st1" d="M200.4,321l0.7-0.4l-0.1-0.8c-0.1-1.6-0.1-3.1-0.1-4.6c0.1-1.7,0.2-3.4,0.5-5.1l0.1-0.8l-0.6-0.5
	c-21.4-17.2-63.3-21.8-99.7-10.9c-7,2.1-13.5,4.7-19.3,7.7l-2,1l1.8,1.3c5.6,3.8,11.8,7.3,18.5,10.3
	C135.6,334,177.6,335.1,200.4,321"/>
<path class="st1" d="M206.5,347.2l0.4-0.7l-0.4-0.7c-0.8-1.4-1.4-2.7-1.9-4.1c-0.6-1.6-1.2-3.2-1.7-4.8l-0.2-0.8L202,336
	c-26.4-5.4-65.9,10.2-93.9,36.9c-5.4,5.1-10.1,10.5-14.1,16l-1.3,1.9l2.2,0.3c6.6,0.8,13.6,1,20.9,0.5
	C153.8,389.2,192,370.5,206.5,347.2"/>
<path class="st1" d="M219.2,363.4c-1.2-1.1-2.4-2.3-3.5-3.6l-0.5-0.6l-0.7,0.2c-25.9,7.5-54.8,40-68.8,77.2c-2.7,7.1-4.7,14.2-6,21
	l-0.4,2.3l2.1-0.8c6.2-2.3,12.6-5.5,19-9.3c33.2-20,59.7-54.6,63-82.4l0.1-0.8l-0.6-0.5C221.4,365.2,220.3,364.3,219.2,363.4"/>
<path class="st0" d="M405.4,343.2c6-1.6,12-3.6,17-5.9c0.6-6.4,0.6-22.7,0.5-24.5c-4.8-2.5-10.3-5-16-7c-10.6-3.5-25.8-5.1-36.2-6
	c-1.3-8.8-0.4-4.1-2.8-13c9.4-5.5,22.7-13.6,30.9-21.6c4.6-4.4,8.5-8.9,11.9-13.4c-2.9-7.7-6.3-15.2-10.2-22.4
	c-5.3,0.2-10.9,0.8-16.9,2c-10.9,2.1-25,8.3-34.7,12.8c-5-7.1-2.2-3.4-8.2-10.1c5.8-9.5,14-23.3,17.7-34.4
	c2.1-6.2,3.3-11.5,4.3-17.1c-4.9-4.4-10-8.4-15.4-12.2l-36.2,66.4c3.9,3,7.6,6.4,11.1,10.1c17.9,19,27.8,44.2,27.8,71
	s-9.9,52-27.8,71c-17.9,19-41.7,29.4-67,29.4c-13.4,0-26.4-3-38.3-8.6l-36.5,67c5.6,3,11.3,5.6,17.2,7.9c3.6-3.6,7.2-7.6,10.8-12.2
	c7-9.1,14.1-23.4,18.8-33.4c8.2,2,3.8,1.1,12.4,2.2c1.3,11.2,3.4,27.4,7.3,38.5c2,5.8,4.3,11.8,6.7,16.5c0.5,0,16.8-0.6,24.2-1.6
	c1.7-5,3.1-11.3,4.2-17.2c2.2-11.5,2.1-27.7,1.8-38.9c8.1-2.3,3.8-0.9,11.9-4.3c6.1,9.3,15.1,22.5,23.5,30.4c4.4,4.2,9.4,8,13.7,11
	c7.1-4,14-8.4,20.4-13.4c-0.8-5.4-2.4-11.3-4.1-17.2c-3.1-11.3-10.4-25.5-15.6-35.2c6.1-6.1,3-2.7,8.6-9.7
	c9.5,5.2,23.3,12.3,34.2,15.1c5.9,1.5,12,2.7,17.3,3.2c4.5-6.9,8.5-14.1,12-21.7c-3.1-4.5-7.2-9.3-11.4-13.8
	c-7.8-8.4-20.5-17.4-29.4-23.3c2.7-8.4,1.4-3.8,3.3-12.8C379.2,346.7,394.6,346.2,405.4,343.2"/>
<g>
	<path d="M563.3,215.9H536v18.5h32v11.4h-46.2v-69H568v11.5H536v16.4h27.3V215.9z"/>
	<path d="M605.4,240.6c-3.4,4.1-8.1,6.2-14,6.2c-5.5,0-9.7-1.6-12.6-4.7c-2.9-3.2-4.4-7.8-4.4-13.9v-33.6H588v33.1
		c0,5.3,2.4,8,7.3,8c4.6,0,7.8-1.6,9.6-4.8v-36.3h13.7v51.2h-12.9L605.4,240.6z"/>
	<path d="M657.8,207.4c-1.9-0.3-3.5-0.4-4.9-0.4c-5.2,0-8.6,1.8-10.2,5.3v33.5H629v-51.2h12.9l0.4,6.1c2.7-4.7,6.6-7.1,11.4-7.1
		c1.5,0,2.9,0.2,4.3,0.6L657.8,207.4z"/>
	<path d="M660.5,219.7c0-5.1,1-9.6,2.9-13.6c2-4,4.8-7.1,8.5-9.2c3.7-2.2,7.9-3.3,12.8-3.3c6.9,0,12.6,2.1,16.9,6.3
		c4.4,4.2,6.8,10,7.3,17.2l0.1,3.5c0,7.9-2.2,14.2-6.6,18.9c-4.4,4.8-10.3,7.1-17.7,7.1s-13.3-2.4-17.7-7.1
		c-4.4-4.7-6.6-11.2-6.6-19.3V219.7z M674.2,220.7c0,4.9,0.9,8.6,2.7,11.2c1.8,2.6,4.5,3.9,7.9,3.9c3.3,0,5.9-1.3,7.8-3.8
		c1.9-2.5,2.8-6.6,2.8-12.2c0-4.8-0.9-8.5-2.8-11.1c-1.9-2.6-4.5-3.9-7.9-3.9c-3.3,0-5.9,1.3-7.8,3.9
		C675.1,211.2,674.2,215.2,674.2,220.7z"/>
	<path d="M763.6,220.7c0,7.9-1.8,14.2-5.4,19c-3.6,4.8-8.4,7.1-14.5,7.1c-5.2,0-9.4-1.8-12.6-5.4v24.2h-13.7v-71h12.7l0.5,5
		c3.3-4,7.6-6,13-6c6.3,0,11.2,2.3,14.7,7c3.5,4.7,5.3,11.1,5.3,19.3V220.7z M749.9,219.7c0-4.8-0.8-8.4-2.5-11
		c-1.7-2.6-4.1-3.9-7.4-3.9c-4.3,0-7.2,1.6-8.9,4.9v21c1.7,3.4,4.7,5.1,9,5.1C746.7,235.7,749.9,230.4,749.9,219.7z"/>
	<path d="M795.7,246.8c-7.5,0-13.6-2.3-18.4-6.9c-4.7-4.6-7.1-10.8-7.1-18.4v-1.3c0-5.1,1-9.7,3-13.8c2-4.1,4.8-7.2,8.5-9.4
		c3.6-2.2,7.8-3.3,12.5-3.3c7,0,12.5,2.2,16.6,6.6c4,4.4,6,10.7,6,18.8v5.6h-32.6c0.4,3.3,1.8,6,4,8.1c2.2,2,5,3,8.5,3
		c5.3,0,9.4-1.9,12.4-5.7l6.7,7.5c-2.1,2.9-4.8,5.2-8.3,6.8C803.8,245.9,799.9,246.8,795.7,246.8z M794.1,204.7
		c-2.7,0-4.9,0.9-6.6,2.8s-2.8,4.5-3.2,7.9h19v-1.1c-0.1-3-0.9-5.4-2.5-7.1S797,204.7,794.1,204.7z"/>
	<path d="M854.2,245.8c-0.6-1.2-1.1-2.8-1.4-4.6c-3.3,3.7-7.6,5.5-12.9,5.5c-5,0-9.2-1.5-12.5-4.4c-3.3-2.9-4.9-6.6-4.9-11
		c0-5.4,2-9.6,6-12.5c4-2.9,9.8-4.4,17.5-4.4h6.3v-2.9c0-2.4-0.6-4.3-1.8-5.7c-1.2-1.4-3.1-2.1-5.8-2.1c-2.3,0-4.1,0.6-5.4,1.7
		c-1.3,1.1-2,2.6-2,4.5h-13.7c0-3,0.9-5.7,2.7-8.2c1.8-2.5,4.4-4.5,7.8-5.9c3.3-1.4,7.1-2.2,11.3-2.2c6.3,0,11.3,1.6,15,4.8
		c3.7,3.2,5.6,7.6,5.6,13.4V234c0,4.9,0.7,8.5,2,11v0.8H854.2z M842.9,236.3c2,0,3.9-0.4,5.6-1.4c1.7-0.9,3-2.1,3.8-3.6v-8.8h-5.1
		c-6.9,0-10.5,2.4-10.9,7.1l0,0.8c0,1.7,0.6,3.1,1.8,4.2C839.2,235.7,840.8,236.3,842.9,236.3z"/>
	<path d="M889.1,194.6l0.4,5.9c3.7-4.6,8.6-6.9,14.7-6.9c5.4,0,9.5,1.6,12.1,4.8c2.7,3.2,4,8,4.1,14.3v33.1h-13.7V213
		c0-2.9-0.6-5-1.9-6.3c-1.3-1.3-3.4-2-6.3-2c-3.9,0-6.7,1.6-8.7,4.9v36.1h-13.7v-51.2H889.1z"/>
	<path d="M563.3,321.9H536v18.5h32v11.4h-46.2v-69H568v11.5H536v16.4h27.3V321.9z"/>
	<path d="M588.1,300.6l0.4,5.9c3.7-4.6,8.6-6.9,14.7-6.9c5.4,0,9.5,1.6,12.1,4.8c2.7,3.2,4,8,4.1,14.3v33.1h-13.7V319
		c0-2.9-0.6-5-1.9-6.3c-1.3-1.3-3.4-2-6.3-2c-3.9,0-6.7,1.6-8.7,4.9v36.1h-13.7v-51.2H588.1z"/>
	<path d="M649,335.1l9.5-34.5h14.3l-17.3,51.2h-13.1l-17.3-51.2h14.3L649,335.1z"/>
	<path d="M678.7,287.3c0-2.1,0.7-3.7,2.1-5.1c1.4-1.3,3.2-2,5.6-2c2.3,0,4.2,0.7,5.6,2s2.1,3,2.1,5.1c0,2.1-0.7,3.8-2.1,5.1
		c-1.4,1.3-3.3,2-5.6,2s-4.2-0.7-5.6-2C679.4,291.1,678.7,289.4,678.7,287.3z M693.3,351.8h-13.7v-51.2h13.7V351.8z"/>
	<path d="M733.3,313.4c-1.9-0.3-3.5-0.4-4.9-0.4c-5.2,0-8.6,1.8-10.2,5.3v33.5h-13.7v-51.2h12.9l0.4,6.1c2.7-4.7,6.6-7.1,11.4-7.1
		c1.5,0,2.9,0.2,4.3,0.6L733.3,313.4z"/>
	<path d="M736.1,325.7c0-5.1,1-9.6,2.9-13.6c2-4,4.8-7.1,8.5-9.2c3.7-2.2,7.9-3.3,12.8-3.3c6.9,0,12.6,2.1,16.9,6.3
		c4.4,4.2,6.8,10,7.3,17.2l0.1,3.5c0,7.9-2.2,14.2-6.6,18.9c-4.4,4.8-10.3,7.1-17.7,7.1s-13.3-2.4-17.7-7.1
		c-4.4-4.7-6.6-11.2-6.6-19.3V325.7z M749.8,326.7c0,4.9,0.9,8.6,2.7,11.2c1.8,2.6,4.5,3.9,7.9,3.9c3.3,0,5.9-1.3,7.8-3.8
		s2.8-6.6,2.8-12.2c0-4.8-0.9-8.5-2.8-11.1c-1.9-2.6-4.5-3.9-7.9-3.9c-3.3,0-5.9,1.3-7.8,3.9C750.7,317.2,749.8,321.2,749.8,326.7z"
		/>
	<path d="M805.7,300.6l0.4,5.9c3.7-4.6,8.6-6.9,14.7-6.9c5.4,0,9.5,1.6,12.1,4.8c2.7,3.2,4,8,4.1,14.3v33.1h-13.7V319
		c0-2.9-0.6-5-1.9-6.3c-1.3-1.3-3.4-2-6.3-2c-3.9,0-6.7,1.6-8.7,4.9v36.1h-13.7v-51.2H805.7z"/>
	<path d="M860.2,300.6l0.4,5.7c3.6-4.5,8.5-6.7,14.7-6.7c6.6,0,11.1,2.6,13.6,7.8c3.6-5.2,8.7-7.8,15.4-7.8c5.6,0,9.7,1.6,12.4,4.9
		c2.7,3.2,4.1,8.1,4.1,14.6v32.7h-13.7v-32.7c0-2.9-0.6-5-1.7-6.4c-1.1-1.3-3.1-2-6-2c-4.1,0-6.9,2-8.5,5.9l0,35.2h-13.7v-32.6
		c0-3-0.6-5.1-1.8-6.4s-3.2-2-6-2c-3.9,0-6.7,1.6-8.4,4.8v36.2h-13.7v-51.2H860.2z"/>
	<path d="M955,352.8c-7.5,0-13.6-2.3-18.4-6.9c-4.7-4.6-7.1-10.8-7.1-18.4v-1.3c0-5.1,1-9.7,3-13.8c2-4.1,4.8-7.2,8.5-9.4
		c3.6-2.2,7.8-3.3,12.5-3.3c7,0,12.5,2.2,16.6,6.6c4,4.4,6,10.7,6,18.8v5.6h-32.6c0.4,3.3,1.8,6,4,8.1c2.2,2,5,3,8.5,3
		c5.3,0,9.4-1.9,12.4-5.7l6.7,7.5c-2.1,2.9-4.8,5.2-8.3,6.8S959.2,352.8,955,352.8z M953.4,310.7c-2.7,0-4.9,0.9-6.6,2.8
		c-1.7,1.8-2.8,4.5-3.2,7.9h19v-1.1c-0.1-3-0.9-5.4-2.5-7.1C958.5,311.5,956.3,310.7,953.4,310.7z"/>
	<path d="M996.4,300.6l0.4,5.9c3.7-4.6,8.6-6.9,14.7-6.9c5.4,0,9.5,1.6,12.1,4.8c2.7,3.2,4,8,4.1,14.3v33.1h-13.7V319
		c0-2.9-0.6-5-1.9-6.3c-1.3-1.3-3.4-2-6.3-2c-3.9,0-6.7,1.6-8.7,4.9v36.1h-13.7v-51.2H996.4z"/>
	<path d="M1054.5,288v12.6h8.8v10h-8.8v25.6c0,1.9,0.4,3.3,1.1,4.1c0.7,0.8,2.1,1.2,4.2,1.2c1.5,0,2.9-0.1,4-0.3v10.4
		c-2.7,0.8-5.4,1.2-8.3,1.2c-9.6,0-14.5-4.8-14.7-14.5v-27.6h-7.5v-10h7.5V288H1054.5z"/>
	<path d="M560.8,443.6h-24.9l-4.7,14.2H516l25.7-69h13.2l25.8,69h-15.1L560.8,443.6z M539.7,432.1h17.2l-8.7-25.8L539.7,432.1z"/>
	<path d="M584.2,431.8c0-7.9,1.9-14.2,5.6-19c3.7-4.8,8.8-7.2,15.1-7.2c5.6,0,10,1.9,13.1,5.8l0.6-4.8H631v49.5
		c0,4.5-1,8.4-3.1,11.7c-2,3.3-4.9,5.8-8.6,7.6s-8,2.6-13,2.6c-3.8,0-7.4-0.8-11-2.2c-3.6-1.5-6.3-3.4-8.1-5.8l6.1-8.3
		c3.4,3.8,7.5,5.7,12.4,5.7c3.6,0,6.5-1,8.5-2.9c2-1.9,3-4.7,3-8.3v-2.7c-3.2,3.6-7.3,5.4-12.5,5.4c-6.2,0-11.1-2.4-14.9-7.2
		c-3.8-4.8-5.7-11.2-5.7-19.2V431.8z M597.9,432.8c0,4.6,0.9,8.3,2.8,10.9c1.9,2.6,4.4,4,7.7,4c4.2,0,7.2-1.6,9-4.7v-21.6
		c-1.8-3.1-4.8-4.7-8.9-4.7c-3.3,0-5.9,1.3-7.7,4C598.8,423.5,597.9,427.5,597.9,432.8z"/>
	<path d="M665.1,458.8c-7.5,0-13.6-2.3-18.4-6.9c-4.7-4.6-7.1-10.8-7.1-18.4v-1.3c0-5.1,1-9.7,3-13.8s4.8-7.2,8.5-9.4
		c3.6-2.2,7.8-3.3,12.5-3.3c7,0,12.5,2.2,16.6,6.6c4,4.4,6,10.7,6,18.8v5.6h-32.6c0.4,3.3,1.8,6,4,8.1c2.2,2,5,3,8.5,3
		c5.3,0,9.4-1.9,12.4-5.7l6.7,7.5c-2.1,2.9-4.8,5.2-8.3,6.8S669.4,458.8,665.1,458.8z M663.6,416.7c-2.7,0-4.9,0.9-6.6,2.8
		s-2.8,4.5-3.2,7.9h19v-1.1c-0.1-3-0.9-5.4-2.5-7.1S666.5,416.7,663.6,416.7z"/>
	<path d="M706.6,406.6l0.4,5.9c3.7-4.6,8.6-6.9,14.7-6.9c5.4,0,9.5,1.6,12.1,4.8c2.7,3.2,4,8,4.1,14.3v33.1h-13.7V425
		c0-2.9-0.6-5-1.9-6.3c-1.3-1.3-3.4-2-6.3-2c-3.9,0-6.7,1.6-8.7,4.9v36.1h-13.7v-51.2H706.6z"/>
	<path d="M769.6,447.7c2.5,0,4.6-0.7,6.2-2.1c1.6-1.4,2.4-3.2,2.5-5.5h12.8c0,3.5-1,6.7-2.8,9.5c-1.9,2.9-4.4,5.1-7.6,6.7
		c-3.2,1.6-6.8,2.4-10.7,2.4c-7.3,0-13.1-2.3-17.3-7c-4.2-4.7-6.3-11.1-6.3-19.3v-0.9c0-7.9,2.1-14.2,6.3-18.9
		c4.2-4.7,10-7.1,17.3-7.1c6.4,0,11.5,1.8,15.4,5.5c3.9,3.6,5.8,8.5,5.9,14.6h-12.8c-0.1-2.7-0.9-4.8-2.5-6.5
		c-1.6-1.7-3.7-2.5-6.3-2.5c-3.2,0-5.6,1.2-7.2,3.5c-1.6,2.3-2.4,6.1-2.4,11.3v1.4c0,5.3,0.8,9.1,2.4,11.4
		C763.9,446.6,766.3,447.7,769.6,447.7z"/>
	<path d="M818,438.4l9.5-31.9h14.7l-20.6,59.2l-1.1,2.7c-3.1,6.7-8.1,10-15.2,10c-2,0-4-0.3-6.1-0.9v-10.4l2.1,0
		c2.6,0,4.5-0.4,5.8-1.2c1.3-0.8,2.3-2.1,3-3.9l1.6-4.2l-18-51.4h14.7L818,438.4z"/>
</g>
</svg>
